HIERARCHY
ROOT Hips
{
	OFFSET 0.000000 100.481300 0.000000
	CHANNELS 6 Xposition Yposition Zposition Xrotation Yrotation Zrotation
	JOINT Spine
	{
		OFFSET -0.279200 12.230698 -2.892100
		CHANNELS 3 Xrotation Yrotation Zrotation
		JOINT Spine1
		{
			OFFSET -0.325700 14.269203 -3.374200
			CHANNELS 3 Xrotation Yrotation Zrotation
			JOINT Spine2
			{
				OFFSET -0.372300 16.307602 -0.352600
				CHANNELS 3 Xrotation Yrotation Zrotation
				JOINT Neck
				{
					OFFSET -0.418800 17.814194 8.416900
					CHANNELS 3 Xrotation Yrotation Zrotation
					JOINT Head
					{
						OFFSET 0.000000 7.031097 3.806800
						CHANNELS 3 Xrotation Yrotation Zrotation
						JOINT HeadTop_End
						{
							OFFSET 0.000000 24.646606 12.978600
							CHANNELS 3 Xrotation Yrotation Zrotation
							End Site
							{
								OFFSET 0.000000 27.854965 0.000000
							}
						}
					}
				}
				JOINT LeftShoulder
				{
					OFFSET 16.952999 14.495407 -7.737500
					CHANNELS 3 Xrotation Yrotation Zrotation
					JOINT LeftArm
					{
						OFFSET 9.308998 -2.777710 0.208600
						CHANNELS 3 Xrotation Yrotation Zrotation
						JOINT LeftForeArm
						{
							OFFSET 29.972298 0.000000 0.000000
							CHANNELS 3 Xrotation Yrotation Zrotation
							JOINT LeftHand
							{
								OFFSET 26.026505 0.000000 0.000000
								CHANNELS 3 Xrotation Yrotation Zrotation
								JOINT LeftHandThumb1
								{
									OFFSET 12.240501 -7.147949 9.207150
									CHANNELS 3 Xrotation Yrotation Zrotation
									JOINT LeftHandThumb2
									{
										OFFSET 4.138618 -2.389435 2.389433
										CHANNELS 3 Xrotation Yrotation Zrotation
										JOINT LeftHandThumb3
										{
											OFFSET 2.726913 -1.574387 1.574386
											CHANNELS 3 Xrotation Yrotation Zrotation
											JOINT LeftHandThumb4
											{
												OFFSET 3.941010 -2.275345 2.275342
												CHANNELS 3 Xrotation Yrotation Zrotation
												End Site
												{
													OFFSET -0.005798 5.087799 0.009903
												}
											}
										}
									}
								}
								JOINT LeftHandIndex1
								{
									OFFSET 24.424698 -1.985611 5.953459
									CHANNELS 3 Xrotation Yrotation Zrotation
									JOINT LeftHandIndex2
									{
										OFFSET 6.426697 0.000000 0.000000
										CHANNELS 3 Xrotation Yrotation Zrotation
										JOINT LeftHandIndex3
										{
											OFFSET 5.337898 0.000000 0.000000
											CHANNELS 3 Xrotation Yrotation Zrotation
											JOINT LeftHandIndex4
											{
												OFFSET 4.409401 0.000000 0.000000
												CHANNELS 3 Xrotation Yrotation Zrotation
												End Site
												{
													OFFSET 0.000000 4.409363 0.014373
												}
											}
										}
									}
								}
								JOINT LeftHandMiddle1
								{
									OFFSET 23.810104 0.000000 0.000000
									CHANNELS 3 Xrotation Yrotation Zrotation
									JOINT LeftHandMiddle2
									{
										OFFSET 7.176498 0.000000 0.000000
										CHANNELS 3 Xrotation Yrotation Zrotation
										JOINT LeftHandMiddle3
										{
											OFFSET 6.774902 0.000000 0.000000
											CHANNELS 3 Xrotation Yrotation Zrotation
											JOINT LeftHandMiddle4
											{
												OFFSET 5.403328 0.000000 0.000000
												CHANNELS 3 Xrotation Yrotation Zrotation
												End Site
												{
													OFFSET -0.027702 5.403244 0.017414
												}
											}
										}
									}
								}
								JOINT LeftHandRing1
								{
									OFFSET 22.908401 -0.839279 -6.020567
									CHANNELS 3 Xrotation Yrotation Zrotation
									JOINT LeftHandRing2
									{
										OFFSET 6.337502 0.000000 0.000000
										CHANNELS 3 Xrotation Yrotation Zrotation
										JOINT LeftHandRing3
										{
											OFFSET 5.779297 0.000000 0.000000
											CHANNELS 3 Xrotation Yrotation Zrotation
											JOINT LeftHandRing4
											{
												OFFSET 4.965698 0.000000 0.000000
												CHANNELS 3 Xrotation Yrotation Zrotation
												End Site
												{
													OFFSET 0.000000 4.965668 0.016186
												}
											}
										}
									}
								}
								JOINT LeftHandPinky1
								{
									OFFSET 20.037003 -1.530319 -10.950146
									CHANNELS 3 Xrotation Yrotation Zrotation
									JOINT LeftHandPinky2
									{
										OFFSET 5.254700 0.000000 0.000000
										CHANNELS 3 Xrotation Yrotation Zrotation
										JOINT LeftHandPinky3
										{
											OFFSET 4.810204 0.000000 0.000000
											CHANNELS 3 Xrotation Yrotation Zrotation
											JOINT LeftHandPinky4
											{
												OFFSET 3.647202 0.000000 0.000000
												CHANNELS 3 Xrotation Yrotation Zrotation
												End Site
												{
													OFFSET 0.000000 3.647186 0.011889
												}
											}
										}
									}
								}
							}
						}
					}
				}
				JOINT RightShoulder
				{
					OFFSET -15.141001 14.495407 -7.737500
					CHANNELS 3 Xrotation Yrotation Zrotation
					JOINT RightArm
					{
						OFFSET -9.308998 -2.777710 0.208500
						CHANNELS 3 Xrotation Yrotation Zrotation
						JOINT RightForeArm
						{
							OFFSET -29.972300 0.000000 0.000000
							CHANNELS 3 Xrotation Yrotation Zrotation
							JOINT RightHand
							{
								OFFSET -26.026505 0.000000 0.000000
								CHANNELS 3 Xrotation Yrotation Zrotation
								JOINT RightHandThumb1
								{
									OFFSET -12.240601 -7.148026 9.207092
									CHANNELS 3 Xrotation Yrotation Zrotation
									JOINT RightHandThumb2
									{
										OFFSET -4.138618 -2.389435 2.389433
										CHANNELS 3 Xrotation Yrotation Zrotation
										JOINT RightHandThumb3
										{
											OFFSET -2.726974 -1.574417 1.574421
											CHANNELS 3 Xrotation Yrotation Zrotation
											JOINT RightHandThumb4
											{
												OFFSET -3.941010 -2.275345 2.275343
												CHANNELS 3 Xrotation Yrotation Zrotation
												End Site
												{
													OFFSET 0.005814 5.087799 0.009927
												}
											}
										}
									}
								}
								JOINT RightHandIndex1
								{
									OFFSET -24.424698 -1.985657 5.953444
									CHANNELS 3 Xrotation Yrotation Zrotation
									JOINT RightHandIndex2
									{
										OFFSET -6.426697 0.000000 0.000000
										CHANNELS 3 Xrotation Yrotation Zrotation
										JOINT RightHandIndex3
										{
											OFFSET -5.337898 0.000000 0.000000
											CHANNELS 3 Xrotation Yrotation Zrotation
											JOINT RightHandIndex4
											{
												OFFSET -4.409401 0.000000 0.000000
												CHANNELS 3 Xrotation Yrotation Zrotation
												End Site
												{
													OFFSET 0.000000 4.409363 0.014408
												}
											}
										}
									}
								}
								JOINT RightHandMiddle1
								{
									OFFSET -23.810097 0.000000 0.000000
									CHANNELS 3 Xrotation Yrotation Zrotation
									JOINT RightHandMiddle2
									{
										OFFSET -7.176498 0.000000 0.000000
										CHANNELS 3 Xrotation Yrotation Zrotation
										JOINT RightHandMiddle3
										{
											OFFSET -6.774902 0.000000 0.000000
											CHANNELS 3 Xrotation Yrotation Zrotation
											JOINT RightHandMiddle4
											{
												OFFSET -5.403328 0.000000 0.000000
												CHANNELS 3 Xrotation Yrotation Zrotation
												End Site
												{
													OFFSET 0.027702 5.403244 0.017457
												}
											}
										}
									}
								}
								JOINT RightHandRing1
								{
									OFFSET -22.908302 -0.839325 -6.020576
									CHANNELS 3 Xrotation Yrotation Zrotation
									JOINT RightHandRing2
									{
										OFFSET -6.337502 0.000000 0.000000
										CHANNELS 3 Xrotation Yrotation Zrotation
										JOINT RightHandRing3
										{
											OFFSET -5.779297 0.000000 0.000000
											CHANNELS 3 Xrotation Yrotation Zrotation
											JOINT RightHandRing4
											{
												OFFSET -4.965698 0.000000 0.000000
												CHANNELS 3 Xrotation Yrotation Zrotation
												End Site
												{
													OFFSET 0.000000 4.965668 0.016226
												}
											}
										}
									}
								}
								JOINT RightHandPinky1
								{
									OFFSET -20.037003 -1.530334 -10.950259
									CHANNELS 3 Xrotation Yrotation Zrotation
									JOINT RightHandPinky2
									{
										OFFSET -5.254700 0.000000 0.000000
										CHANNELS 3 Xrotation Yrotation Zrotation
										JOINT RightHandPinky3
										{
											OFFSET -4.810204 0.000000 0.000000
											CHANNELS 3 Xrotation Yrotation Zrotation
											JOINT RightHandPinky4
											{
												OFFSET -3.647202 0.000000 0.000000
												CHANNELS 3 Xrotation Yrotation Zrotation
												End Site
												{
													OFFSET 0.000000 3.647186 0.011917
												}
											}
										}
									}
								}
							}
						}
					}
				}
			}
		}
	}
	JOINT LeftUpLeg
	{
		OFFSET 15.427100 -6.655098 0.678600
		CHANNELS 3 Xrotation Yrotation Zrotation
		JOINT LeftLeg
		{
			OFFSET 4.081073 -39.591068 13.024000
			CHANNELS 3 Xrotation Yrotation Zrotation
			JOINT LeftFoot
			{
				OFFSET -4.081074 -37.707932 -15.979700
				CHANNELS 3 Xrotation Yrotation Zrotation
				JOINT LeftToeBase
				{
					OFFSET 5.346399 -15.068900 20.645000
					CHANNELS 3 Xrotation Yrotation Zrotation
					JOINT LeftToe_End
					{
						OFFSET 2.754700 0.931300 11.300900
						CHANNELS 3 Xrotation Yrotation Zrotation
						End Site
						{
							OFFSET 0.000000 11.669021 0.000000
						}
					}
				}
			}
		}
	}
	JOINT RightUpLeg
	{
		OFFSET -15.569500 -6.655098 0.678600
		CHANNELS 3 Xrotation Yrotation Zrotation
		JOINT RightLeg
		{
			OFFSET -4.081825 -39.591045 13.023800
			CHANNELS 3 Xrotation Yrotation Zrotation
			JOINT RightFoot
			{
				OFFSET 4.081824 -37.707954 -15.979600
				CHANNELS 3 Xrotation Yrotation Zrotation
				JOINT RightToeBase
				{
					OFFSET -5.346400 -15.068900 20.645000
					CHANNELS 3 Xrotation Yrotation Zrotation
					JOINT RightToe_End
					{
						OFFSET -2.754700 0.931300 11.300900
						CHANNELS 3 Xrotation Yrotation Zrotation
						End Site
						{
							OFFSET 0.000000 11.669021 0.000000
						}
					}
				}
			}
		}
	}
}
MOTION
Frames: 5
Frame Time: 0.033333
-0.760581 90.624390 -1.526025 0.663585 -0.032964 5.972991 4.959176 -0.784655 -4.617859 2.497107 -0.566116 -0.796654 2.497941 -0.615251 -0.759268 -7.784483 1.056310 -1.500427 -7.278568 2.362637 2.146347 0.000000 -0.000000 -0.000000 11.964150 -24.243225 -4.098996 15.952680 -24.193469 -42.110739 0.000015 -47.757062 0.000018 -40.996824 -10.446594 3.185068 13.242708 21.553224 -2.701575 -8.131196 18.803301 4.387239 -6.281577 7.264426 3.591323 0.000000 0.000000 0.000000 0.130311 1.335938 -11.142156 0.125594 1.311776 -10.938014 0.031455 0.658889 -5.468299 -0.000003 -0.000003 -0.000002 0.129942 1.334042 -11.126165 0.125951 1.313663 -10.954028 0.031478 0.658893 -5.468281 0.000000 -0.000001 -0.000002 0.130311 1.335938 -11.142155 0.125589 1.311781 -10.938013 0.031460 0.658885 -5.468301 -0.000002 0.000000 -0.000000 0.898743 5.317015 -10.676369 0.119334 -2.743647 -11.439473 0.031464 0.658880 -5.468305 -0.000000 0.000002 0.000001 -2.774894 -10.350620 10.080710 10.731136 44.950745 58.941268 0.000003 13.142445 0.000000 -21.562854 -12.861619 4.826919 -4.346251 -15.667535 -16.874768 6.629666 -18.113110 2.990096 -0.438994 -4.651445 -0.779238 0.000001 -0.000001 0.000002 0.157559 -1.474756 12.195847 0.114351 -1.258389 10.384270 0.028642 -0.631787 5.191516 0.000000 -0.000001 0.000001 0.157559 -1.474756 12.195847 0.114352 -1.258389 10.384270 0.028643 -0.631784 5.191526 0.000001 0.000000 0.000002 0.157559 -1.474756 12.195847 0.114354 -1.258391 10.384269 0.028642 -0.631786 5.191516 0.000001 -0.000000 0.000001 0.157559 -1.474756 12.195846 0.114352 -1.258390 10.384269 0.028643 -0.631785 5.191516 -0.000003 0.000001 0.000002 -6.815694 30.281797 -7.641622 30.044687 -9.132245 7.547127 -20.504815 -2.259848 -3.016387 -2.386536 0.000011 -0.000003 -0.000000 0.000002 -0.000000 -30.258868 -13.470768 -10.784446 52.818662 -4.300641 -9.901169 3.011539 1.434029 -1.157112 -18.659139 -1.229015 8.592346 0.000001 0.000003 -0.000000 
-0.861393 91.663277 3.587413 1.111962 0.920760 5.473856 4.991356 -1.343175 -4.045571 2.525849 -1.011137 -0.715473 2.526125 -1.055494 -0.649965 -8.255540 0.774138 -1.336308 -7.996335 1.176067 2.198178 -0.000000 0.000000 -0.000000 11.087780 -22.312736 -4.213438 15.843665 -24.620254 -41.602508 -0.000016 -51.581472 -0.000017 -36.992346 -11.784735 5.936251 13.242705 21.553220 -2.701582 -8.131196 18.803299 4.387242 -6.281580 7.264425 3.591326 -0.000001 0.000001 -0.000000 0.130310 1.335936 -11.142158 0.125591 1.311782 -10.938019 0.031457 0.658883 -5.468302 0.000001 0.000001 -0.000002 0.129941 1.334044 -11.126164 0.125949 1.313660 -10.954023 0.031473 0.658889 -5.468283 0.000000 0.000003 0.000002 0.130310 1.335936 -11.142156 0.125590 1.311781 -10.938016 0.031462 0.658883 -5.468296 -0.000002 -0.000001 0.000002 0.898737 5.317016 -10.676370 0.119336 -2.743641 -11.439473 0.031468 0.658876 -5.468300 -0.000002 -0.000003 -0.000001 -2.769115 -10.544511 10.159855 11.742055 47.212378 58.255264 -0.000005 14.590056 0.000004 -23.811487 -14.099380 5.317783 -4.346247 -15.667539 -16.874752 6.629667 -18.113107 2.990096 -0.438992 -4.651445 -0.779238 -0.000002 -0.000001 -0.000001 0.157565 -1.474752 12.195831 0.114352 -1.258394 10.384269 0.028641 -0.631783 5.191509 0.000000 0.000000 0.000001 0.157565 -1.474752 12.195830 0.114351 -1.258393 10.384264 0.028641 -0.631783 5.191516 0.000000 -0.000001 0.000003 0.157565 -1.474753 12.195830 0.114353 -1.258392 10.384268 0.028641 -0.631784 5.191512 -0.000000 0.000000 0.000001 0.157565 -1.474752 12.195830 0.114352 -1.258394 10.384264 0.028639 -0.631781 5.191511 0.000000 0.000001 -0.000001 -1.559499 27.889413 -7.341915 25.643331 -9.783893 5.975331 -21.945203 -1.238915 -4.392643 -2.273766 -0.000001 -0.000001 -0.000001 0.000000 0.000000 -33.293327 -16.056480 -9.675912 47.029063 -1.459465 -9.912126 0.769680 1.506725 -0.791807 -8.811107 -0.317203 4.898797 0.000000 0.000002 0.000000 
-0.964269 92.758034 8.555655 1.619565 1.848817 4.937983 4.980544 -1.781615 -3.490851 2.499984 -1.386423 -0.646014 2.499799 -1.427100 -0.556141 -8.730100 0.498735 -1.212663 -8.957879 -0.021961 2.203988 -0.000000 -0.000000 -0.000000 10.503482 -21.014318 -4.383817 15.678824 -24.548277 -40.998682 0.000007 -55.169572 0.000010 -33.291787 -12.911019 9.075405 13.242701 21.553213 -2.701577 -8.131193 18.803302 4.387241 -6.281580 7.264426 3.591323 -0.000004 -0.000000 0.000001 0.130310 1.335938 -11.142158 0.125585 1.311774 -10.938013 0.031456 0.658885 -5.468305 0.000001 -0.000003 -0.000002 0.129943 1.334041 -11.126165 0.125948 1.313661 -10.954021 0.031469 0.658890 -5.468285 0.000002 0.000002 0.000001 0.130310 1.335938 -11.142157 0.125587 1.311775 -10.938011 0.031464 0.658886 -5.468299 0.000001 0.000001 0.000002 0.898741 5.317018 -10.676369 0.119338 -2.743644 -11.439478 0.031467 0.658880 -5.468299 -0.000003 -0.000003 0.000001 -2.813730 -10.726775 10.274349 12.823908 49.177294 57.643033 0.000001 16.069777 0.000004 -25.614879 -15.349571 5.625195 -4.346259 -15.667537 -16.874812 6.629665 -18.113108 2.990097 -0.438993 -4.651443 -0.779240 -0.000000 0.000000 -0.000002 0.157559 -1.474754 12.195830 0.114353 -1.258390 10.384293 0.028642 -0.631783 5.191527 0.000002 0.000000 0.000000 0.157559 -1.474754 12.195831 0.114355 -1.258391 10.384292 0.028641 -0.631783 5.191531 0.000000 0.000001 -0.000002 0.157560 -1.474753 12.195834 0.114353 -1.258392 10.384291 0.028642 -0.631783 5.191527 0.000001 0.000001 0.000000 0.157559 -1.474754 12.195830 0.114355 -1.258393 10.384292 0.028642 -0.631781 5.191526 0.000000 0.000000 0.000002 3.746219 25.801757 -6.876185 20.207384 -10.355291 4.587767 -22.451445 -0.194851 -6.538396 -2.179820 -0.000001 0.000002 0.000000 -0.000002 -0.000001 -35.856772 -18.789734 -8.224987 40.871019 1.381875 -9.908056 -2.348682 1.375720 0.270258 -0.667100 0.000004 -0.000000 -0.000000 -0.000001 -0.000000 
-1.084986 93.877319 13.345679 2.156869 2.733885 4.355084 4.874178 -1.980518 -2.945731 2.366410 -1.618862 -0.595930 2.366300 -1.657520 -0.489153 -9.206888 0.269428 -1.166046 -9.926177 -1.082254 2.123738 0.000000 0.000000 -0.000000 10.510865 -20.879972 -4.190578 15.051995 -23.825701 -40.771479 -0.000023 -57.955801 -0.000026 -30.581117 -13.947754 12.343923 13.242719 21.553215 -2.701578 -8.131198 18.803299 4.387238 -6.281577 7.264426 3.591323 0.000001 0.000001 0.000000 0.130311 1.335935 -11.142157 0.125591 1.311775 -10.938014 0.031456 0.658884 -5.468302 -0.000002 -0.000002 -0.000002 0.129941 1.334044 -11.126165 0.125952 1.313660 -10.954023 0.031469 0.658886 -5.468281 -0.000002 -0.000002 -0.000001 0.130311 1.335935 -11.142156 0.125591 1.311779 -10.938011 0.031460 0.658883 -5.468293 0.000001 -0.000000 0.000002 0.898741 5.317010 -10.676369 0.119337 -2.743642 -11.439471 0.031467 0.658882 -5.468299 -0.000002 -0.000001 -0.000000 -2.943585 -11.065847 10.362548 12.880168 50.817181 58.274983 0.000000 15.702151 -0.000004 -26.313493 -15.593219 6.136696 -4.346258 -15.667537 -16.874771 6.629666 -18.113105 2.990099 -0.438992 -4.651441 -0.779237 -0.000001 0.000003 0.000003 0.157557 -1.474755 12.195818 0.114356 -1.258388 10.384291 0.028642 -0.631785 5.191509 0.000001 0.000000 0.000001 0.157557 -1.474754 12.195818 0.114355 -1.258389 10.384290 0.028643 -0.631786 5.191514 0.000001 0.000001 0.000002 0.157557 -1.474750 12.195834 0.114352 -1.258394 10.384271 0.028644 -0.631786 5.191509 -0.000000 -0.000000 -0.000000 0.157557 -1.474755 12.195818 0.114354 -1.258390 10.384289 0.028642 -0.631785 5.191509 -0.000000 0.000002 0.000001 9.346731 24.466988 -6.623548 13.630136 -10.544156 3.642345 -22.236109 0.162286 -8.394413 -2.138316 -0.000008 -0.000004 -0.000000 0.000001 0.000000 -37.179967 -21.685752 -6.352500 33.136390 3.805156 -9.860528 -5.970354 1.033150 2.040039 -0.073886 0.000004 -0.000000 0.000000 -0.000000 0.000000 
-1.246677 94.753883 17.920149 2.692809 3.554697 3.747525 4.713586 -1.914287 -2.429002 2.175754 -1.710362 -0.580349 2.176672 -1.748221 -0.464564 -9.689582 0.175877 -1.037316 -10.630188 -1.324423 2.047561 0.000001 0.000000 -0.000000 11.114291 -21.810590 -3.554464 14.239173 -22.531063 -40.604327 0.000006 -60.082681 0.000012 -29.021265 -14.528236 13.781762 13.242711 21.553227 -2.701586 -8.131198 18.803299 4.387242 -6.281578 7.264427 3.591326 -0.000002 -0.000000 -0.000000 0.130312 1.335930 -11.142155 0.125588 1.311779 -10.938019 0.031455 0.658883 -5.468306 0.000002 -0.000001 -0.000000 0.129944 1.334039 -11.126165 0.125952 1.313659 -10.954018 0.031472 0.658896 -5.468283 0.000002 0.000002 0.000001 0.130312 1.335930 -11.142153 0.125589 1.311779 -10.938012 0.031459 0.658886 -5.468301 -0.000002 0.000000 0.000001 0.898744 5.317010 -10.676366 0.119337 -2.743640 -11.439473 0.031467 0.658875 -5.468299 -0.000001 -0.000002 0.000001 -3.677462 -12.858931 10.249608 12.530561 52.316572 59.954567 -0.000012 12.426556 0.000007 -26.053089 -14.630433 7.177786 -4.346250 -15.667537 -16.874763 6.629666 -18.113108 2.990095 -0.438994 -4.651445 -0.779238 -0.000001 -0.000002 0.000000 0.157560 -1.474753 12.195840 0.114352 -1.258389 10.384287 0.028641 -0.631782 5.191532 0.000000 0.000001 0.000003 0.157560 -1.474752 12.195841 0.114352 -1.258389 10.384287 0.028639 -0.631783 5.191522 0.000001 -0.000000 -0.000001 0.157562 -1.474753 12.195841 0.114352 -1.258391 10.384287 0.028642 -0.631782 5.191526 -0.000001 0.000000 0.000001 0.157560 -1.474753 12.195840 0.114352 -1.258390 10.384286 0.028640 -0.631780 5.191531 -0.000001 0.000001 0.000000 14.423177 24.305419 -6.586922 7.379911 -10.424078 3.627162 -21.124785 -0.641423 -10.032719 -2.532524 -0.000005 -0.000003 -0.000000 -0.000001 -0.000000 -37.190605 -24.722628 -4.342234 24.784132 4.591196 -9.814472 -10.168033 0.227497 4.527010 0.000004 0.000000 -0.000001 0.000000 0.000001 -0.000001 
